<?xml version="1.0" encoding="UTF-8" standalone="no"?>
<!-- Created with Inkscape (http://www.inkscape.org/) -->

<svg
   version="1.1"
   id="svg1"
   width="350"
   height="350"
   viewBox="0 0 1191.2084 715.75244"
   sodipodi:docname="Intel_NUC.svg"
   xml:space="preserve"
   inkscape:version="1.3.2 (091e20e, 2023-11-25, custom)"
   xmlns:inkscape="http://www.inkscape.org/namespaces/inkscape"
   xmlns:sodipodi="http://sodipodi.sourceforge.net/DTD/sodipodi-0.dtd"
   xmlns="http://www.w3.org/2000/svg"
   xmlns:svg="http://www.w3.org/2000/svg"><defs
     id="defs1" /><sodipodi:namedview
     id="namedview1"
     pagecolor="#ffffff"
     bordercolor="#000000"
     borderopacity="0.25"
     inkscape:showpageshadow="2"
     inkscape:pageopacity="0.0"
     inkscape:pagecheckerboard="0"
     inkscape:deskcolor="#d1d1d1"
     inkscape:zoom="0.60107032"
     inkscape:cx="595.60419"
     inkscape:cy="358.5271"
     inkscape:window-width="1366"
     inkscape:window-height="705"
     inkscape:window-x="-8"
     inkscape:window-y="-8"
     inkscape:window-maximized="1"
     inkscape:current-layer="svg1" /><path
     d="m 1025.0616,326.39329 c -14.7847,-0.0829 -23.28,1.16351 -38.74333,4.73676 -74.03699,17.10843 -131.56152,73.27611 -148.37626,144.88136 -5.49161,23.38574 -5.59478,67.8509 -0.20608,88.44753 18.06839,69.06185 65.17719,120.09417 129.13466,139.88444 12.13674,3.75546 23.76533,7.7899 25.83871,8.96796 2.07338,1.17806 19.3699,2.21113 38.439,2.2923 30.8075,0.13144 36.969,-0.58959 55.2901,-6.47442 36.5492,-11.73965 63.8878,-27.83906 91.3044,-53.76847 12.8711,-12.17293 16.3702,-18.60908 11.1179,-20.44911 -1.3152,-0.46074 -9.682,-7.92531 -18.5888,-16.58606 l -16.1934,-15.74668 -14.0826,13.7489 c -40.3427,39.387 -98.2982,54.17131 -148.32721,37.84016 -24.57282,-8.02134 -36.99651,-15.24492 -55.08888,-32.03332 -27.60729,-25.61758 -42.31776,-60.53583 -42.45422,-100.77295 -0.092,-27.11019 4.44394,-45.29574 17.52358,-70.276 15.08531,-28.81083 51.52661,-57.31383 84.50104,-66.0939 21.38829,-5.69501 59.84829,-4.51615 82.70939,2.53774 22.124,6.82642 50.2203,24.50773 63.3844,39.88703 l 8.5016,9.93496 17.6709,-18.50531 c 9.7182,-10.17612 17.7016,-19.66662 17.7396,-21.09213 0.1,-3.746 -26.8041,-29.28035 -40.5939,-38.52737 -31.604,-21.19271 -61.6224,-30.606 -103.1291,-32.34257 -6.8171,-0.28519 -12.4432,-0.46323 -17.3714,-0.49085 z"
     style="display:inline;fill:#0269b6;stroke-width:2.51319"
     id="path4" /><path
     d="M 437.2947,331.23314 V 448.2289 c 0,132.06775 0.58429,137.6943 18.09789,173.84683 14.6011,30.14029 44.22108,59.01991 77.40325,75.47418 9.75077,4.83519 35.44995,13.17461 40.60369,13.17461 2.54812,0 4.63369,1.13093 4.63369,2.51318 0,3.16097 66.98734,3.43762 68.93597,0.2847 0.75742,-1.22556 5.42469,-2.98896 10.3718,-3.91703 11.33573,-2.12661 36.6941,-12.89688 51.07368,-21.6959 20.90508,-12.79208 46.55372,-41.06222 58.75067,-64.74895 18.95376,-36.80862 19.46248,-41.37984 19.46248,-174.93162 V 331.23314 H 757.72616 728.8245 l -0.049,107.43878 c -0.0274,59.09128 -1.15551,115.09202 -2.50829,124.44699 -5.35352,37.02215 -29.02398,69.15916 -63.34017,85.99815 -17.14083,8.41098 -22.14534,9.66539 -42.87637,10.74976 -55.79519,2.91844 -99.64426,-26.04005 -118.96902,-78.57148 -4.19604,-11.40628 -4.69855,-23.5249 -5.45834,-131.31407 l -0.83453,-118.74813 h -28.74949 z"
     style="display:inline;fill:#0269b6;stroke-width:2.51319"
     id="path3" /><path
     d="m 201.09921,326.55527 c -24.38033,0.48494 -49.08851,4.2174 -68.76907,11.09336 -24.28536,8.4848 -36.135955,15.99011 -56.684166,35.89639 -9.779408,9.47389 -18.362253,16.64567 -19.069794,15.93811 -0.707545,-0.70754 -1.286046,-14.10001 -1.286046,-29.76557 V 331.23314 H 27.645067 0 v 189.74569 189.74569 h 26.182314 c 14.400592,0 27.971824,-0.68754 30.158255,-1.52656 3.538141,-1.3577 3.975941,-13.19763 3.975941,-107.6646 0,-121.03581 1.198484,-130.69705 20.134955,-162.57184 12.232887,-20.591 25.858075,-32.80384 49.051345,-43.96606 54.70627,-26.32846 129.70149,-18.40863 159.42054,16.8364 12.31012,14.59908 21.80454,32.87639 25.6031,49.28205 1.71668,7.41431 3.40532,57.95311 4.3539,130.23418 l 1.55111,118.11983 28.20465,0.71174 c 27.97407,0.70414 28.21692,0.65858 29.72629,-5.35526 0.83702,-3.33487 1.04571,-59.07202 0.4614,-123.85794 -1.17911,-130.7401 -1.34315,-132.23495 -18.41204,-167.69638 -17.66266,-36.69511 -50.14177,-64.18572 -92.52654,-78.31624 -18.35532,-6.11944 -42.40568,-8.88352 -66.78601,-8.39857 z"
     style="display:inline;fill:#0269b6;stroke-width:2.51319"
     id="path2"
     sodipodi:nodetypes="ssssscccccssssssscccsssss" /><g
     transform="matrix(2.2339151,0,0,2.2540294,182.37678,-173.22216)"
     stroke-width="0.74113"
     id="g1-9"><rect
       class="st0"
       x="-81.211998"
       y="78.406998"
       width="20.826"
       height="20.826"
       fill="#0068b5"
       id="rect1" /><path
       class="st1"
       d="m -60.905,186.91 v -75.076 h -19.788 v 75.002 h 19.788 z m 131.03,0.74112 v -18.38 c -2.8904,0 -5.3361,-0.14818 -7.1148,-0.44467 -2.0752,-0.29645 -3.6315,-1.0376 -4.6691,-2.0752 -1.0376,-1.0376 -1.7046,-2.5198 -2.0752,-4.5209 -0.29645,-1.8528 -0.44468,-4.2986 -0.44468,-7.2631 v -26.162 h 14.304 v -16.972 h -14.304 v -29.201 h -19.788 v 72.557 c 0,6.1514 0.51879,11.339 1.5564,15.49 1.0376,4.0762 2.8163,7.4113 5.262,9.9311 2.4457,2.5198 5.7067,4.2986 9.6347,5.4103 4.0021,1.1117 9.0418,1.6305 15.045,1.6305 z M 183.365,186.91 V 76.85 H 163.577 V 186.91 Z M 16.985,119.245 c -5.4844,-5.929 -13.192,-8.8936 -22.975,-8.8936 -4.7432,0 -9.1159,0.96347 -12.97,2.8904 -3.928,1.927 -7.189,4.595 -9.857,8.0042 l -1.0376,1.4082 v -10.82 h -19.492 v 75.002 h 19.64 v -39.947 2.7422 -1.334 c 0.22232,-7.0408 1.9269,-12.229 5.1879,-15.564 3.4833,-3.5574 7.7078,-5.3361 12.525,-5.3361 5.7067,0 10.079,1.7787 12.97,5.1879 2.8163,3.4092 4.2986,8.2265 4.2986,14.378 v 39.873 h 19.936 v -42.541 c 0.07412,-10.672 -2.7422,-19.121 -8.2265,-25.05 z m 136.37,30.016 c 0,-5.4102 -0.96347,-10.45 -2.8163,-15.193 -1.9269,-4.6691 -4.595,-8.8195 -7.9301,-12.377 -3.4092,-3.5574 -7.4854,-6.2996 -12.229,-8.3006 -4.7432,-2.001 -10.005,-2.9645 -15.712,-2.9645 -5.4102,0 -10.524,1.0376 -15.267,3.0386 -4.7432,2.0752 -8.8936,4.8173 -12.377,8.3006 -3.4833,3.4833 -6.2996,7.6336 -8.3007,12.377 -2.0752,4.7432 -3.0386,9.857 -3.0386,15.267 0,5.4103 0.96347,10.524 2.8904,15.267 1.9269,4.7432 4.6691,8.8936 8.0783,12.377 3.4092,3.4833 7.6336,6.2996 12.525,8.3006 4.8915,2.0752 10.302,3.1128 16.083,3.1128 16.75,0 27.125,-7.6336 33.351,-14.748 l -14.23,-10.82 c -2.9645,3.5574 -10.079,8.3748 -18.973,8.3748 -5.5585,0 -10.153,-1.2599 -13.637,-3.8539 -3.4833,-2.5199 -5.8549,-6.0773 -7.1148,-10.45 l -0.22235,-0.667 h 58.92 z m -58.772,-6.8925 c 0,-5.4844 6.2996,-15.045 19.862,-15.119 13.563,0 19.936,9.5606 19.936,15.045 z"
       id="path1" /></g></svg>
