<svg xmlns="http://www.w3.org/2000/svg" width="24" height="24" viewBox="0 0 24 24"><rect x="6" y="6" width="12" height="12" rx="2" fill="#3f51b5"/><rect x="9" y="9" width="6" height="6" rx="1" fill="#c5cae9"/><rect x="8.4" y="3.4" width="1.6" height="2.6" rx="0.5" fill="#ea4335"/><rect x="11.2" y="3.4" width="1.6" height="2.6" rx="0.5" fill="#fbbc05"/><rect x="14" y="3.4" width="1.6" height="2.6" rx="0.5" fill="#34a853"/><rect x="8.4" y="18" width="1.6" height="2.6" rx="0.5" fill="#34a853"/><rect x="11.2" y="18" width="1.6" height="2.6" rx="0.5" fill="#ea4335"/><rect x="14" y="18" width="1.6" height="2.6" rx="0.5" fill="#fbbc05"/><rect x="3.4" y="8.4" width="2.6" height="1.6" rx="0.5" fill="#4285f4"/><rect x="3.4" y="11.2" width="2.6" height="1.6" rx="0.5" fill="#34a853"/><rect x="3.4" y="14" width="2.6" height="1.6" rx="0.5" fill="#ea4335"/><rect x="18" y="8.4" width="2.6" height="1.6" rx="0.5" fill="#fbbc05"/><rect x="18" y="11.2" width="2.6" height="1.6" rx="0.5" fill="#4285f4"/><rect x="18" y="14" width="2.6" height="1.6" rx="0.5" fill="#34a853"/></svg>
